<svg xmlns="http://www.w3.org/2000/svg" xmlns:xlink="http://www.w3.org/1999/xlink" xmlns:svgjs="http://svgjs.dev/svgjs" version="1.1" width="1000" height="164" viewBox="0 0 1000 164"><g transform="matrix(1,0,0,1,-0.6060310783287832,-0.602251702924363)"><svg xmlns="http://www.w3.org/2000/svg" xmlns:xlink="http://www.w3.org/1999/xlink" viewBox="0 0 396 65" data-background-color="#ffffff" preserveAspectRatio="xMidYMid meet" height="164" width="1000"><g id="tight-bounds" transform="matrix(1,0,0,1,0.2399883070181943,0.23869732128099486)"><svg viewBox="0 0 395.5199999999999 64.52260535743802" height="64.52260535743802" width="395.5199999999999"><g><svg viewBox="0 0 488.170336019041 79.63698912359551" height="64.52260535743802" width="395.5199999999999"><g transform="matrix(1,0,0,1,92.65033601904102,11.006269842696632)"><svg viewBox="0 0 395.52 57.62444943820225" height="57.62444943820225" width="395.52"><g><svg viewBox="0 0 395.52 57.62444943820225" height="57.62444943820225" width="395.52"><g><svg viewBox="0 0 395.52 57.62444943820225" height="57.62444943820225" width="395.52"><g transform="matrix(1,0,0,1,0,0)"><svg width="395.52" viewBox="1.9500000476837158 -38.29999923706055 266.97998046875 38.89999771118164" height="57.62444943820225" data-palette-color="#ffffff"><path d="M22.75-26.05L21.05-31.75Q18.35-32.7 15.5-32.7 12.65-32.7 10.5-31.08 8.35-29.45 8.35-26.25L8.35-26.25Q8.35-23.15 11-21.5L11-21.5Q12.45-20.6 13.38-20.2 14.3-19.8 16.07-19.15 17.85-18.5 18.5-18.23 19.15-17.95 20.43-17.38 21.7-16.8 22.33-16.35 22.95-15.9 23.85-15.1 24.75-14.3 25.2-13.5L25.2-13.5Q26.3-11.45 26.3-9.05L26.3-9.05Q26.3-4.8 22.85-2.1 19.4 0.6 13.9 0.6L13.9 0.6Q9.7 0.6 6.05-0.8L6.05-0.8Q4.25-1.45 3.1-2.6 1.95-3.75 1.95-5.25L1.95-5.25Q1.95-7.7 5.5-8.6L5.5-8.6Q6.05-5.6 7.6-3.75 9.15-1.9 10.83-1.3 12.5-0.7 14.93-0.7 17.35-0.7 19.5-2.27 21.65-3.85 21.65-7.45L21.65-7.45Q21.65-10.2 19.15-11.95L19.15-11.95Q17.15-13.3 14.23-14.5 11.3-15.7 10.3-16.13 9.3-16.55 7.73-17.48 6.15-18.4 5.4-19.3L5.4-19.3Q3.45-21.65 3.45-24.7L3.45-24.7Q3.45-29.4 6.8-31.8 10.15-34.2 16.05-34.2L16.05-34.2Q19.6-34.2 24.3-33.4L24.3-33.4 24.3-26.05 22.75-26.05ZM35.35-5.4L35.35-5.4Q35.35-2.15 38-1.55L38-1.55Q38.6-1.4 39.15-1.4L39.15-1.4Q41.05-1.4 43.1-3.03 45.15-4.65 45.25-7.4L45.25-7.4 45.25-11.7Q35.35-11.6 35.35-5.4ZM37.35 0.6L37.35 0.6Q34.5 0.6 32.47-0.98 30.45-2.55 30.45-5.4L30.45-5.4Q30.5-9.25 34.32-11.15 38.15-13.05 45.25-13.05L45.25-13.05 45.25-17.35Q45.25-23.7 40.65-23.7L40.65-23.7Q38.3-23.7 36.85-21.75L36.85-21.75Q35.85-20.4 35.85-18.4L35.85-18.4Q35.85-17.55 36.05-16.6L36.05-16.6Q35.35-16.1 34.62-16.1 33.9-16.1 33.2-16.4L33.2-16.4Q31.6-17 31.6-18.7L31.6-18.7Q31.6-21 33.25-22.5L33.25-22.5Q35.95-24.95 40.7-24.95 45.45-24.95 47.6-22.93 49.75-20.9 49.75-16.55L49.75-16.55 49.75-1.4 53.95-1.2 54-0.05 45.65 0.55 45.2-3.9Q42.9 0.6 37.35 0.6ZM63.85-19.15L64.3-19.1Q66.55-24.9 73.34-24.9L73.34-24.9Q76.75-24.9 78.84-22.88 80.95-20.85 80.95-17.1L80.95-17.1Q80.95-10.65 80.55-1.45L80.55-1.45 84-1.2 84 0 72.95 0 72.95-1.2 75.65-1.4Q76.05-12.7 76.05-14.35 76.05-16 76-16.88 75.95-17.75 75.72-19.03 75.5-20.3 75.05-21.05L75.05-21.05Q73.95-22.9 71.59-22.9L71.59-22.9Q68.4-22.9 66.34-20.25 64.3-17.6 64.3-14.5L64.3-14.5 64.3-1.45 68.05-1.2 68.05 0 56.1 0 56.1-1.2 59.4-1.45 59.4-22.6 55.15-22.8 55.15-23.95 64.09-24.55 63.85-19.15ZM111.99-33.35L111.99-25.8 110.49-25.8 108.79-31.55 99.94-31.65 99.94-1.65 104.59-1.2 104.59 0 90.14 0 90.14-1.2 94.79-1.65 94.79-31.65 85.94-31.55 84.24-25.8 82.79-25.8 82.79-33.35 97.39-33.45 111.99-33.35ZM123.24 0.55Q118.09 0.55 114.94-2.95 111.79-6.45 111.79-12.2 111.79-17.95 115.12-21.45 118.44-24.95 123.49-24.95 128.54-24.95 131.04-22.68 133.54-20.4 133.54-16.35L133.54-16.35Q133.54-15.15 133.34-13.95L133.34-13.95 117.19-13.95 117.19-12.2Q117.19-6.6 118.79-3.73 120.39-0.85 124.04-0.85L124.04-0.85Q129.19-0.85 131.99-5.35L131.99-5.35Q133.09-5 133.09-4.3L133.09-4.3Q133.09-3.05 130.79-1.4L130.79-1.4Q129.69-0.6 127.69-0.03 125.69 0.55 123.24 0.55L123.24 0.55ZM128.79-17.4L128.79-17.4Q128.79-19.7 127.84-21.35L127.84-21.35Q126.54-23.55 123.64-23.55L123.64-23.55Q118.24-23.55 117.34-15.75L117.34-15.75 128.69-15.75Q128.79-16.6 128.79-17.4ZM150.69-24.95L150.69-24.95Q153.49-24.95 156.09-23.75L156.09-23.75Q157.54-23.1 158.41-21.75 159.29-20.4 159.29-18.6 159.29-16.8 157.69-16.15L157.69-16.15Q157.04-15.9 156.31-15.9 155.59-15.9 154.84-16.4L154.84-16.4Q155.04-17.45 155.04-18.88 155.04-20.3 154.14-21.6L154.14-21.6Q152.84-23.55 150.44-23.55L150.44-23.55Q143.49-23.55 143.49-12.1L143.49-12.1Q143.49-6.5 145.11-3.68 146.74-0.85 150.39-0.85L150.39-0.85Q155.04-0.85 157.84-5.35L157.84-5.35Q158.94-5 158.94-4.28 158.94-3.55 158.01-2.48 157.09-1.4 154.81-0.43 152.54 0.55 149.59 0.55L149.59 0.55Q144.44 0.55 141.26-2.95 138.09-6.45 138.09-12.2 138.09-17.95 141.51-21.45 144.94-24.95 150.69-24.95ZM179.29-24.75L179.29-24.75Q187.29-24.75 187.29-17.05L187.29-17.05Q187.29-11.5 186.94-1.45L186.94-1.45 190.49-1.2 190.49 0 179.34 0 179.34-1.2 182.04-1.4Q182.39-14.6 182.39-17.43 182.39-20.25 181.34-21.65 180.29-23.05 177.71-23.05 175.14-23.05 172.89-20.6 170.64-18.15 170.64-16.1L170.64-16.1 170.64-1.45 173.94-1.2 173.94 0 162.44 0 162.44-1.2 165.74-1.45 165.74-35.9 161.34-36.1 161.29-37.25 170.64-38.3Q170.34-21.15 170.29-20L170.29-20 170.69-20Q172.04-22.3 174.31-23.53 176.59-24.75 179.29-24.75ZM219.93-25.05L219.93-25.05Q219.93-22.25 218.73-20.25 217.53-18.25 215.48-17.2L215.48-17.2Q211.63-15.3 206.28-15.3L206.28-15.3Q204.98-15.3 202.78-15.5L202.78-15.5 202.78-1.45 206.63-1.2 206.63 0 193.88 0 193.88-1.2 197.63-1.45 197.63-31.75 193.28-32.3 193.28-33.5 202.63-33.5 208.58-33.65Q219.93-33.65 219.93-25.05ZM204.98-16.85L204.98-16.85Q209.53-16.85 211.98-19.05 214.43-21.25 214.43-24.98 214.43-28.7 212.68-30.43 210.93-32.15 207.08-32.15L207.08-32.15Q205.38-32.15 202.78-31.95L202.78-31.95 202.78-16.95Q203.53-16.85 204.98-16.85ZM238.78-25L238.78-25Q240.08-25 240.83-24.38 241.58-23.75 241.58-22.65L241.58-22.65Q241.58-20.75 240.13-20.15L240.13-20.15Q239.33-20.8 237.23-20.8 235.13-20.8 233.21-19.43 231.28-18.05 231.28-16.3L231.28-16.3 231.28-1.45 235.78-1.2 235.78 0 223.08 0 223.08-1.2 226.38-1.4 226.38-22.75 222.43-22.95 222.43-24.1 231.28-24.65 230.98-18.5 231.18-18.5Q232.03-21.2 234.31-23.1 236.58-25 238.78-25ZM268.93-12.2Q268.93-6.65 265.58-3.05 262.23 0.55 256.45 0.55 250.68 0.55 247.33-3.05 243.98-6.65 243.98-12.2 243.98-17.75 247.33-21.35 250.68-24.95 256.45-24.95 262.23-24.95 265.58-21.35 268.93-17.75 268.93-12.2ZM249.43-12.2L249.43-12.2Q249.43-0.65 256.45-0.65 263.48-0.65 263.48-12.2L263.48-12.2Q263.48-17.8 261.88-20.75 260.28-23.7 256.48-23.7 252.68-23.7 251.05-20.75 249.43-17.8 249.43-12.2Z" opacity="1" transform="matrix(1,0,0,1,0,0)" fill="#ffffff" class="undefined-text-0" data-fill-palette-color="primary" id="text-0"/></svg></g></svg></g></svg></g></svg></g><g><svg viewBox="0 0 79.04658649346798 79.63698912359551" height="79.63698912359551" width="79.04658649346798"><g><svg xmlns="http://www.w3.org/2000/svg" xmlns:xlink="http://www.w3.org/1999/xlink" version="1.1" x="0" y="0" viewBox="3.427999496459961 3.006999969482422 57.571998596191406 58.00200653076172" style="enable-background:new 0 0 64 64;" xml:space="preserve" height="79.63698912359551" width="79.04658649346798" class="icon-icon-0" data-fill-palette-color="accent" id="icon-0"><g fill="#ffffff" data-fill-palette-color="accent"><path d="M21 31.007c-0.552 0-1 0.448-1 1 0 0.552 0.448 1 1 1h2c0.552 0 1-0.448 1-1 0-0.552-0.448-1-1-1H21z" fill="#ffffff" data-fill-palette-color="accent"/><path d="M7 28.007h3.051c-0.027-0.331-0.051-0.662-0.051-1v-5H7c-0.552 0-1 0.448-1 1v4C6 27.559 6.448 28.007 7 28.007z" fill="#ffffff" data-fill-palette-color="accent"/><path d="M25.816 31.007h5.343c0.538-1.226 0.841-2.578 0.841-4v-7.031c-3.76-0.238-7.262-1.816-9.949-4.504L22 15.421l-0.051 0.051C19.262 18.16 15.76 19.738 12 19.976v7.031c0 5.514 4.486 10 10 10 3.261 0 6.154-1.577 7.981-4h-4.165c-0.414 1.161-1.514 2-2.816 2h-2c-1.654 0-3-1.346-3-3 0-1.654 1.346-3 3-3h2C24.302 29.007 25.402 29.846 25.816 31.007zM28 22.007c0.552 0 1 0.448 1 1 0 0.552-0.448 1-1 1s-1-0.448-1-1C27 22.455 27.448 22.007 28 22.007zM16 24.007c-0.552 0-1-0.448-1-1 0-0.552 0.448-1 1-1s1 0.448 1 1C17 23.56 16.552 24.007 16 24.007z" fill="#ffffff" data-fill-palette-color="accent"/><path d="M17.018 40.185l-7.399 1.233c-1.775 0.297-3.261 1.532-3.877 3.224l-2.314 6.366H8.22l0.811-3.242 1.939 0.484-0.689 2.758H21v-6.101C18.778 44.453 17.102 42.518 17.018 40.185z" fill="#ffffff" data-fill-palette-color="accent"/><path d="M34 27.007c0 0.338-0.023 0.669-0.051 1H35v5h2v-5c0.552 0 1-0.448 1-1v-4c0-0.552-0.448-1-1-1h-3V27.007z" fill="#ffffff" data-fill-palette-color="accent"/><path d="M10 18.007h1c3.602 0 6.988-1.402 9.535-3.949L22 12.593l1.465 1.465c2.547 2.547 5.934 3.949 9.535 3.949h1v2h2v-3.15c0-7.637-6.213-13.85-13.85-13.85-3.699 0-7.177 1.44-9.793 4.057l-0.846 0.847-0.27 0.066C9.333 8.455 8 10.163 8 12.13v7.877h2V18.007z" fill="#ffffff" data-fill-palette-color="accent"/><path d="M25 40.007v-1.395c-0.961 0.249-1.962 0.395-3 0.395s-2.039-0.146-3-0.395v1.395c0 1.654 1.346 3 3 3S25 41.662 25 40.007z" fill="#ffffff" data-fill-palette-color="accent"/><path d="M47 39.007c-4.411 0-8 3.589-8 8s3.589 8 8 8 8-3.589 8-8S51.411 39.007 47 39.007zM51 47.007c0-2.206-1.794-4-4-4s-4 1.794-4 4 1.794 4 4 4v2c-3.309 0-6-2.691-6-6s2.691-6 6-6 6 2.691 6 6H51z" fill="#ffffff" data-fill-palette-color="accent"/><path d="M58.678 44.214l-0.16-0.554c-0.25-0.86-0.588-1.68-1.004-2.436l-0.278-0.505 1.232-2.044-3.137-3.137-2.044 1.232-0.505-0.278c-0.756-0.416-1.575-0.754-2.436-1.004l-0.554-0.16-0.575-2.322h-4.436l-0.575 2.322-0.554 0.16c-0.86 0.25-1.68 0.588-2.436 1.004l-0.505 0.278-2.044-1.232-3.137 3.137 1.232 2.044-0.278 0.505c-0.416 0.756-0.754 1.575-1.004 2.436l-0.16 0.554L33 44.79v4.436l2.322 0.575 0.16 0.554c0.25 0.86 0.588 1.68 1.004 2.436l0.278 0.505-1.232 2.044 3.137 3.137 2.044-1.232 0.505 0.278c0.756 0.416 1.575 0.754 2.436 1.004l0.554 0.16 0.575 2.322h4.436l0.575-2.322 0.554-0.16c0.86-0.25 1.68-0.588 2.436-1.004l0.505-0.278 2.044 1.232 3.137-3.137-1.232-2.044 0.278-0.505c0.416-0.756 0.754-1.575 1.004-2.436l0.16-0.554L61 49.225V44.79L58.678 44.214zM47 57.007c-5.514 0-10-4.486-10-10s4.486-10 10-10 10 4.486 10 10S52.514 57.007 47 57.007z" fill="#ffffff" data-fill-palette-color="accent"/><path d="M31 43.225l2.735-0.678c0.133-0.397 0.289-0.783 0.454-1.162l-7.207-1.201c-0.084 2.334-1.76 4.269-3.982 4.722v6.101h8.879L31 50.79V43.225z" fill="#ffffff" data-fill-palette-color="accent"/></g></svg></g></svg></g></svg></g><defs fill="#ffffff"/></svg><rect width="395.5199999999999" height="64.52260535743802" fill="none" stroke="none" visibility="hidden"/></g></svg></g></svg>